<svg width="361" height="322" viewBox="0 0 361 322" fill="none" xmlns="http://www.w3.org/2000/svg">
<g clip-path="url(#clip0_55_2102)">
<path d="M135.375 28.6875C135.375 46.6393 128.244 63.8559 115.55 76.5498C102.856 89.2437 85.6393 96.375 67.6875 96.375C49.7357 96.375 32.5191 89.2437 19.8252 76.5498C7.13134 63.8559 0 46.6393 0 28.6875C0 10.7357 7.13134 -6.48092 19.8252 -19.1748C32.5191 -31.8687 49.7357 -39 67.6875 -39C85.6393 -39 102.856 -31.8687 115.55 -19.1748C128.244 -6.48092 135.375 10.7357 135.375 28.6875ZM22.5625 28.6875C22.5625 40.6554 27.3167 52.1331 35.7793 60.5957C44.2419 69.0583 55.7196 73.8125 67.6875 73.8125C79.6554 73.8125 91.1331 69.0583 99.5957 60.5957C108.058 52.1331 112.812 40.6554 112.812 28.6875C112.812 16.7196 108.058 5.24189 99.5957 -3.22069C91.1331 -11.6833 79.6554 -16.4375 67.6875 -16.4375C55.7196 -16.4375 44.2419 -11.6833 35.7793 -3.22069C27.3167 5.24189 22.5625 16.7196 22.5625 28.6875Z" fill="#907A5E" fill-opacity="0.14"/>
<path d="M203.062 96.375H214.344C225.289 96.3737 235.861 100.35 244.092 107.564C252.323 114.778 257.651 124.738 259.085 135.589L329.255 104.407C332.689 102.877 336.452 102.229 340.2 102.523C343.949 102.817 347.565 104.043 350.719 106.09C353.873 108.136 356.466 110.939 358.262 114.243C360.057 117.547 360.998 121.247 361 125.007V293.368C360.997 297.125 360.055 300.822 358.261 304.123C356.467 307.424 353.876 310.225 350.725 312.271C347.574 314.318 343.962 315.545 340.216 315.841C336.471 316.137 332.711 315.493 329.277 313.968L259.085 282.786C257.651 293.637 252.323 303.597 244.092 310.811C235.861 318.025 225.289 322.001 214.344 322H45.125C33.1571 322 21.6794 317.246 13.2168 308.783C4.75423 300.321 0 288.843 0 276.875V141.5C0 129.532 4.75423 118.054 13.2168 109.592C21.6794 101.129 33.1571 96.375 45.125 96.375H203.062ZM338.438 293.346V125.029L259.469 160.114V258.261L338.438 293.368V293.346ZM22.5625 141.5V276.875C22.5625 282.859 24.9396 288.598 29.1709 292.829C33.4022 297.06 39.1411 299.438 45.125 299.438H214.344C220.328 299.438 226.067 297.06 230.298 292.829C234.529 288.598 236.906 282.859 236.906 276.875V141.5C236.906 135.516 234.529 129.777 230.298 125.546C226.067 121.315 220.328 118.938 214.344 118.938H45.125C39.1411 118.938 33.4022 121.315 29.1709 125.546C24.9396 129.777 22.5625 135.516 22.5625 141.5Z" fill="#907A5E" fill-opacity="0.14"/>
<path d="M203.062 96.375C221.014 96.375 238.231 89.2437 250.925 76.5498C263.619 63.8559 270.75 46.6393 270.75 28.6875C270.75 10.7357 263.619 -6.48092 250.925 -19.1748C238.231 -31.8687 221.014 -39 203.062 -39C185.111 -39 167.894 -31.8687 155.2 -19.1748C142.506 -6.48092 135.375 10.7357 135.375 28.6875C135.375 46.6393 142.506 63.8559 155.2 76.5498C167.894 89.2437 185.111 96.375 203.062 96.375ZM157.938 28.6875C157.938 16.7196 162.692 5.24189 171.154 -3.22069C179.617 -11.6833 191.095 -16.4375 203.062 -16.4375C215.03 -16.4375 226.508 -11.6833 234.971 -3.22069C243.433 5.24189 248.188 16.7196 248.188 28.6875C248.188 40.6554 243.433 52.1331 234.971 60.5957C226.508 69.0583 215.03 73.8125 203.062 73.8125C191.095 73.8125 179.617 69.0583 171.154 60.5957C162.692 52.1331 157.938 40.6554 157.938 28.6875Z" fill="#907A5E" fill-opacity="0.14"/>
</g>
<defs>
<clipPath id="clip0_55_2102">
<rect width="361" height="361" fill="white" transform="translate(0 -39)"/>
</clipPath>
</defs>
</svg>
