<svg width="12" height="16" viewBox="0 0 12 16" fill="none" xmlns="http://www.w3.org/2000/svg">
<path d="M11.3332 9.00016V2.00016C11.3332 1.82335 11.2629 1.65378 11.1379 1.52876C11.0129 1.40373 10.8433 1.3335 10.6665 1.3335H1.33317C1.15636 1.3335 0.98679 1.40373 0.861766 1.52876C0.736742 1.65378 0.666504 1.82335 0.666504 2.00016V14.0002C0.666504 14.177 0.736742 14.3465 0.861766 14.4716C0.98679 14.5966 1.15636 14.6668 1.33317 14.6668H4.99984M3.6665 4.00016H8.33317M3.6665 6.66683H8.33317M3.6665 9.3335H5.6665" stroke="white" stroke-linecap="round" stroke-linejoin="round"/>
<path d="M10.9997 14.6668L9.84472 13.5118M9.84472 13.5118C10.0027 13.3577 10.1285 13.1739 10.2149 12.9708C10.3012 12.7678 10.3464 12.5496 10.3478 12.329C10.3492 12.1083 10.3067 11.8896 10.2229 11.6855C10.1391 11.4814 10.0156 11.2959 9.85959 11.1399C9.70355 10.9839 9.5181 10.8604 9.31397 10.7767C9.10985 10.6929 8.89112 10.6505 8.67048 10.6519C8.44984 10.6533 8.23167 10.6985 8.02864 10.7849C7.8256 10.8713 7.64175 10.9971 7.48773 11.1551C7.17747 11.4682 7.00386 11.8914 7.00489 12.3322C7.00591 12.7729 7.18149 13.1954 7.4932 13.507C7.80492 13.8186 8.22737 13.9941 8.66814 13.995C9.1089 13.9959 9.53207 13.8221 9.84506 13.5118H9.84472Z" stroke="white" stroke-linecap="round" stroke-linejoin="round"/>
</svg>
