<svg width="12" height="16" viewBox="0 0 12 16" fill="none" xmlns="http://www.w3.org/2000/svg">
<path d="M3.6665 10.0002H8.33317M3.6665 12.0002H5.99984M10.6665 1.3335H1.33317C1.15636 1.3335 0.98679 1.40373 0.861766 1.52876C0.736742 1.65378 0.666504 1.82335 0.666504 2.00016V14.0002C0.666504 14.177 0.736742 14.3465 0.861766 14.4716C0.98679 14.5966 1.15636 14.6668 1.33317 14.6668H10.6665C10.8433 14.6668 11.0129 14.5966 11.1379 14.4716C11.2629 14.3465 11.3332 14.177 11.3332 14.0002V2.00016C11.3332 1.82335 11.2629 1.65378 11.1379 1.52876C11.0129 1.40373 10.8433 1.3335 10.6665 1.3335V1.3335Z" stroke="white" stroke-linecap="round" stroke-linejoin="round"/>
<path d="M8 4.3335L5.33333 7.00016L4 5.66683" stroke="white" stroke-linecap="round" stroke-linejoin="round"/>
</svg>
