<svg width="344" height="344" viewBox="0 0 344 344" fill="none" xmlns="http://www.w3.org/2000/svg">
<path d="M88.58 286.667C105.837 286.667 119.827 272.677 119.827 255.42C119.827 238.163 105.837 224.173 88.58 224.173C71.3229 224.173 57.3333 238.163 57.3333 255.42C57.3333 272.677 71.3229 286.667 88.58 286.667Z" fill="#907A5E" fill-opacity="0.42"/>
<path d="M57.3333 63.6401V104.203C158.097 104.203 239.797 185.903 239.797 286.667H280.36C280.36 163.543 180.457 63.6401 57.3333 63.6401ZM57.3333 144.767V185.33C113.233 185.33 158.67 230.767 158.67 286.667H199.233C199.233 208.263 135.737 144.767 57.3333 144.767Z" fill="#907A5E" fill-opacity="0.42"/>
</svg>
