<svg width="361" height="361" viewBox="0 0 361 361" fill="none" xmlns="http://www.w3.org/2000/svg">
<path d="M225.625 67.6875C225.625 85.6393 232.756 102.856 245.45 115.55C258.144 128.244 275.361 135.375 293.312 135.375C311.264 135.375 328.481 128.244 341.175 115.55C353.869 102.856 361 85.6393 361 67.6875C361 49.7357 353.869 32.5191 341.175 19.8252C328.481 7.13134 311.264 0 293.312 0C275.361 0 258.144 7.13134 245.45 19.8252C232.756 32.5191 225.625 49.7357 225.625 67.6875ZM338.438 67.6875C338.438 79.6554 333.683 91.1331 325.221 99.5957C316.758 108.058 305.28 112.812 293.312 112.812C281.345 112.812 269.867 108.058 261.404 99.5957C252.942 91.1331 248.188 79.6554 248.188 67.6875C248.188 55.7196 252.942 44.2419 261.404 35.7793C269.867 27.3167 281.345 22.5625 293.312 22.5625C305.28 22.5625 316.758 27.3167 325.221 35.7793C333.683 44.2419 338.438 55.7196 338.438 67.6875Z" fill="#907A5E" fill-opacity="0.17"/>
<path d="M157.938 135.375H146.656C135.711 135.374 125.139 139.35 116.908 146.564C108.677 153.778 103.349 163.738 101.915 174.589L31.7454 143.407C28.3108 141.877 24.5482 141.229 20.7996 141.523C17.0509 141.817 13.4351 143.043 10.2809 145.09C7.12662 147.136 4.53391 149.939 2.7384 153.243C0.942932 156.547 0.00161743 160.247 0 164.007V332.368C0.00326538 336.125 0.944794 339.822 2.73907 343.123C4.53336 346.424 7.1236 349.225 10.2747 351.271C13.4258 353.318 17.0381 354.545 20.7836 354.841C24.5291 355.137 28.2893 354.493 31.7229 352.968L101.915 321.786C103.349 332.637 108.677 342.597 116.908 349.811C125.139 357.025 135.711 361.001 146.656 361H315.875C327.843 361 339.321 356.246 347.783 347.783C356.246 339.321 361 327.843 361 315.875V180.5C361 168.532 356.246 157.054 347.783 148.592C339.321 140.129 327.843 135.375 315.875 135.375H157.938ZM22.5625 332.346V164.029L101.531 199.114V297.261L22.5625 332.368V332.346ZM338.438 180.5V315.875C338.438 321.859 336.06 327.598 331.829 331.829C327.598 336.06 321.859 338.438 315.875 338.438H146.656C140.672 338.438 134.933 336.06 130.702 331.829C126.471 327.598 124.094 321.859 124.094 315.875V180.5C124.094 174.516 126.471 168.777 130.702 164.546C134.933 160.315 140.672 157.938 146.656 157.938H315.875C321.859 157.938 327.598 160.315 331.829 164.546C336.06 168.777 338.438 174.516 338.438 180.5Z" fill="#907A5E" fill-opacity="0.17"/>
<path d="M157.938 135.375C139.986 135.375 122.769 128.244 110.075 115.55C97.3813 102.856 90.25 85.6393 90.25 67.6875C90.25 49.7357 97.3813 32.5191 110.075 19.8252C122.769 7.13134 139.986 0 157.938 0C175.889 0 193.106 7.13134 205.8 19.8252C218.494 32.5191 225.625 49.7357 225.625 67.6875C225.625 85.6393 218.494 102.856 205.8 115.55C193.106 128.244 175.889 135.375 157.938 135.375ZM203.062 67.6875C203.062 55.7196 198.308 44.2419 189.846 35.7793C181.383 27.3167 169.905 22.5625 157.938 22.5625C145.97 22.5625 134.492 27.3167 126.029 35.7793C117.567 44.2419 112.812 55.7196 112.812 67.6875C112.812 79.6554 117.567 91.1331 126.029 99.5957C134.492 108.058 145.97 112.812 157.938 112.812C169.905 112.812 181.383 108.058 189.846 99.5957C198.308 91.1331 203.062 79.6554 203.062 67.6875Z" fill="#907A5E" fill-opacity="0.17"/>
</svg>
