<svg width="76" height="70" viewBox="0 0 76 70" fill="none" xmlns="http://www.w3.org/2000/svg">
<path d="M44.833 57.9167C57.7173 57.9167 64.1611 57.9167 68.162 53.9123C72.1663 49.9114 72.1663 43.4676 72.1663 30.5833C72.1663 17.6991 72.1663 11.2552 68.162 7.25433C64.1611 3.25 57.7173 3.25 44.833 3.25H31.1663C18.2821 3.25 11.8383 3.25 7.83734 7.25433C3.83301 11.2552 3.83301 17.6991 3.83301 30.5833C3.83301 43.4676 3.83301 49.9114 7.83734 53.9123C10.0684 56.1468 13.058 57.1342 17.4997 57.5682" stroke="#907A5E" stroke-width="6" stroke-linecap="round" stroke-linejoin="round"/>
<path d="M31.1663 21.9868C32.8746 18.6043 34.5829 16.9165 37.9996 16.9165C42.2568 16.9165 44.8329 20.2956 44.8329 23.6747C44.8329 27.0538 43.1246 27.2041 37.9996 30.5832V33.9998M37.9996 42.5415V44.2498M44.8329 57.9165C40.6099 57.9165 35.9564 59.6248 31.7095 61.8286C24.883 65.3717 21.4698 67.1449 19.7888 66.014C18.1078 64.8865 18.4255 61.3844 19.0644 54.3837L19.2079 52.7915" stroke="#907A5E" stroke-width="6" stroke-linecap="round"/>
</svg>
