<svg width="30" height="26" viewBox="0 0 30 26" fill="none" xmlns="http://www.w3.org/2000/svg">
<path d="M23.7103 11.5555C23.7135 10.1703 22.7339 9.01186 21.4332 8.73309C21.9552 7.86498 22.2767 6.86109 22.2792 5.77776C22.2866 2.59133 19.7013 -4.89882e-08 16.5149 -4.08049e-08C14.3237 -3.51776e-08 12.4372 1.23789 11.4523 3.0391C10.4757 1.23789 8.59499 -2.04655e-08 6.40377 -1.48382e-08C3.21732 -6.65491e-09 0.619975 2.59133 0.612577 5.77776C0.609552 7.08065 1.05745 8.27231 1.78465 9.23864C1.41944 9.50525 1.12185 9.85386 0.915912 10.2563C0.709978 10.6588 0.601473 11.1039 0.599162 11.5555L0.572332 23.111C0.568633 24.7043 1.86129 25.9999 3.45451 25.9999L20.7878 25.9999C22.3811 25.9999 23.6797 24.7043 23.6834 23.111L23.6923 19.3006L29.4633 22.1895L29.4868 12.0784L23.7023 14.9673L23.7103 11.5555ZM16.5082 2.88888C18.1014 2.88888 19.394 4.18454 19.3903 5.77776C19.3866 7.37098 18.088 8.66664 16.4948 8.66664C14.9015 8.66664 13.6089 7.37098 13.6126 5.77776C13.6163 4.18454 14.9149 2.88888 16.5082 2.88888ZM6.39706 2.88888C7.99028 2.88888 9.28294 4.18454 9.27924 5.77776C9.27554 7.37098 7.97687 8.66664 6.38365 8.66664C4.79042 8.66664 3.49777 7.37098 3.50146 5.77776C3.50516 4.18454 4.80384 2.88888 6.39706 2.88888ZM3.46122 23.111L3.48805 11.5555L20.8214 11.5555L20.7974 23.111L3.46122 23.111Z" fill="#D7D7D7"/>
</svg>
