<svg width="13" height="16" viewBox="0 0 13 16" fill="none" xmlns="http://www.w3.org/2000/svg">
<path d="M3.66667 10.0002H8.33333M3.66667 12.0002H6M11 1.3335H1.66667C1.48986 1.3335 1.32029 1.40373 1.19526 1.52876C1.07024 1.65378 1 1.82335 1 2.00016V14.0002C1 14.177 1.07024 14.3465 1.19526 14.4716C1.32029 14.5966 1.48986 14.6668 1.66667 14.6668H11C11.1768 14.6668 11.3464 14.5966 11.4714 14.4716C11.5964 14.3465 11.6667 14.177 11.6667 14.0002V2.00016C11.6667 1.82335 11.5964 1.65378 11.4714 1.52876C11.3464 1.40373 11.1768 1.3335 11 1.3335V1.3335Z" stroke="white" stroke-linecap="round" stroke-linejoin="round"/>
<path d="M3.6665 4H8.33317V7.33333H3.6665V4Z" stroke="white" stroke-linecap="round" stroke-linejoin="round"/>
</svg>
