<svg width="24" height="20" viewBox="0 0 24 20" fill="none" xmlns="http://www.w3.org/2000/svg">
<path d="M21.8175 0.946289C22.4825 0.946289 22.9842 1.52962 22.7158 2.61462L19.4608 17.9563C19.2333 19.0471 18.5742 19.3096 17.6642 18.8021L9.90001 13.068C9.8699 13.0463 9.84537 13.0179 9.82845 12.9849C9.81153 12.9519 9.8027 12.9154 9.8027 12.8784C9.8027 12.8413 9.81153 12.8048 9.82845 12.7718C9.84537 12.7389 9.8699 12.7104 9.90001 12.6888L18.8658 4.59212C19.2742 4.23045 18.7783 4.05545 18.2417 4.38212L6.98918 11.4813C6.95505 11.5035 6.91631 11.5177 6.87588 11.5228C6.83545 11.5278 6.7944 11.5236 6.75585 11.5105L1.97834 9.99962C0.916678 9.69045 0.916678 8.96129 2.21751 8.44212L21.3333 1.06879C21.4849 0.99606 21.6496 0.954408 21.8175 0.946289V0.946289Z" stroke="white" stroke-linecap="round" stroke-linejoin="round"/>
</svg>
