<svg width="35" height="16" viewBox="0 0 35 16" fill="none" xmlns="http://www.w3.org/2000/svg">
<path d="M34.59 13.0002L30.51 8.00024L34.51 3.10024C34.7288 2.83218 34.8666 2.50731 34.9074 2.16371C34.9481 1.82011 34.89 1.47202 34.74 1.16024C34.588 0.810778 34.336 0.514135 34.0156 0.307702C33.6953 0.101269 33.321 -0.00571426 32.94 0.000239289H1.94C1.68917 -0.00373144 1.44001 0.04175 1.20676 0.134086C0.973502 0.226421 0.760723 0.363802 0.580571 0.538382C0.400419 0.712963 0.256424 0.921321 0.156808 1.15156C0.0571926 1.3818 0.00390885 1.62941 0 1.88024L0 14.1302C0.0105107 14.6351 0.220501 15.1152 0.58405 15.4656C0.947598 15.8161 1.43512 16.0083 1.94 16.0002H33.05C33.4183 16.0064 33.7806 15.907 34.0943 15.7139C34.4079 15.5207 34.6597 15.2419 34.82 14.9102C34.9639 14.6022 35.0186 14.2599 34.978 13.9224C34.9373 13.5848 34.8029 13.2653 34.59 13.0002ZM2 14.0002V2.00024H32.78L27.94 7.93024L32.85 14.0002H2Z" fill="#907A5E"/>
</svg>
