<svg width="18" height="18" viewBox="0 0 18 18" fill="none" xmlns="http://www.w3.org/2000/svg">
<path fill-rule="evenodd" clip-rule="evenodd" d="M9.00001 17.3337C4.40001 17.3337 0.666672 13.6087 0.666672 9.00033C0.666672 4.40033 4.40001 0.666992 9.00001 0.666992C13.6083 0.666992 17.3333 4.40033 17.3333 9.00033C17.3333 13.6087 13.6083 17.3337 9.00001 17.3337ZM11.6583 12.092C11.7583 12.1503 11.8667 12.1836 11.9833 12.1836C12.1917 12.1836 12.4 12.0753 12.5167 11.8753C12.6917 11.5836 12.6 11.2003 12.3 11.017L9.33334 9.2503V5.4003C9.33334 5.0503 9.05 4.7753 8.70834 4.7753C8.36667 4.7753 8.08334 5.0503 8.08334 5.4003V9.60863C8.08334 9.8253 8.20001 10.0253 8.39167 10.142L11.6583 12.092Z" fill="#907A5E"/>
</svg>
