<svg width="61" height="45" viewBox="0 0 61 45" fill="none" xmlns="http://www.w3.org/2000/svg">
<path d="M60.6875 22.3114C60.6875 22.1632 60.6875 21.9947 60.6808 21.7993C60.674 21.2535 60.6605 20.6403 60.6471 19.9867C60.5932 18.1067 60.4988 16.2335 60.3506 14.4681C60.1484 12.0355 59.852 10.0073 59.4477 8.48447C59.021 6.89525 58.1847 5.44584 57.0224 4.28111C55.86 3.11638 54.4123 2.27714 52.8239 1.84727C50.917 1.33516 47.184 1.01846 41.9281 0.823047C39.4282 0.728711 36.7531 0.668066 34.078 0.634375C33.1414 0.620898 32.2722 0.61416 31.4905 0.607422H29.5095C28.7278 0.61416 27.8586 0.620898 26.922 0.634375C24.2469 0.668066 21.5718 0.728711 19.0719 0.823047C13.816 1.0252 10.0763 1.34189 8.17607 1.84727C6.58719 2.27609 5.13892 3.11498 3.9764 4.27986C2.81388 5.44475 1.97793 6.89473 1.55234 8.48447C1.14131 10.0073 0.851562 12.0355 0.649414 14.4681C0.501172 16.2335 0.406836 18.1067 0.35293 19.9867C0.332715 20.6403 0.325976 21.2535 0.319238 21.7993C0.319238 21.9947 0.3125 22.1632 0.3125 22.3114V22.6888C0.3125 22.837 0.3125 23.0055 0.319238 23.2009C0.325976 23.7467 0.339453 24.3599 0.35293 25.0135C0.406836 26.8935 0.501172 28.7667 0.649414 30.5321C0.851562 32.9647 1.14805 34.9929 1.55234 36.5157C2.41484 39.7434 4.94844 42.2904 8.17607 43.1529C10.0763 43.6651 13.816 43.9818 19.0719 44.1772C21.5718 44.2715 24.2469 44.3321 26.922 44.3658C27.8586 44.3793 28.7278 44.3861 29.5095 44.3928H31.4905C32.2722 44.3861 33.1414 44.3793 34.078 44.3658C36.7531 44.3321 39.4282 44.2715 41.9281 44.1772C47.184 43.975 50.9237 43.6583 52.8239 43.1529C56.0516 42.2904 58.5852 39.7501 59.4477 36.5157C59.8587 34.9929 60.1484 32.9647 60.3506 30.5321C60.4988 28.7667 60.5932 26.8935 60.6471 25.0135C60.6673 24.3599 60.674 23.7467 60.6808 23.2009C60.6808 23.0055 60.6875 22.837 60.6875 22.6888V22.3114ZM55.8359 22.6618C55.8359 22.8033 55.8359 22.9583 55.8292 23.1402C55.8225 23.6658 55.809 24.2453 55.7955 24.872C55.7483 26.6644 55.654 28.4567 55.5125 30.1211C55.3306 32.2908 55.0745 34.0697 54.7578 35.2624C54.34 36.819 53.1137 38.0521 51.5639 38.4631C50.1488 38.8404 46.5843 39.1437 41.7395 39.3256C39.2867 39.4199 36.6453 39.4806 34.0106 39.5143C33.0875 39.5277 32.2317 39.5345 31.4636 39.5345H29.5364L26.9894 39.5143C24.3547 39.4806 21.72 39.4199 19.2605 39.3256C14.4157 39.1369 10.8444 38.8404 9.43613 38.4631C7.88633 38.0453 6.65996 36.819 6.24219 35.2624C5.92549 34.0697 5.66943 32.2908 5.4875 30.1211C5.346 28.4567 5.2584 26.6644 5.20449 24.872C5.18428 24.2453 5.17754 23.6591 5.1708 23.1402C5.1708 22.9583 5.16406 22.7966 5.16406 22.6618V22.3384C5.16406 22.1969 5.16406 22.0419 5.1708 21.86C5.17754 21.3344 5.19102 20.7549 5.20449 20.1282C5.25166 18.3358 5.346 16.5435 5.4875 14.8791C5.66943 12.7094 5.92549 10.9305 6.24219 9.7378C6.65996 8.18125 7.88633 6.94815 9.43613 6.53711C10.8512 6.15977 14.4157 5.85654 19.2605 5.67461C21.7133 5.58027 24.3547 5.51963 26.9894 5.48594C27.9125 5.47246 28.7683 5.46572 29.5364 5.46572H31.4636L34.0106 5.48594C36.6453 5.51963 39.28 5.58027 41.7395 5.67461C46.5843 5.86328 50.1556 6.15977 51.5639 6.53711C53.1137 6.95489 54.34 8.18125 54.7578 9.7378C55.0745 10.9305 55.3306 12.7094 55.5125 14.8791C55.654 16.5435 55.7416 18.3358 55.7955 20.1282C55.8157 20.7549 55.8225 21.3411 55.8292 21.86C55.8292 22.0419 55.8359 22.2036 55.8359 22.3384V22.6618ZM24.5029 31.5294L40.1357 22.4327L24.5029 13.4708V31.5294Z" fill="#907A5E"/>
</svg>
